<?xml version="1.0" encoding="utf-8"?>
<!-- Generator: Adobe Illustrator 25.2.1, SVG Export Plug-In . SVG Version: 6.00 Build 0)  -->
<svg version="1.1" id="Camada_1" xmlns="http://www.w3.org/2000/svg" xmlns:xlink="http://www.w3.org/1999/xlink" x="0px" y="0px"
	 viewBox="0 0 500 500" style="enable-background:new 0 0 500 500;" xml:space="preserve">
<style type="text/css">
	.st0{fill:#FEFEFE;}
</style>
<g>
	<path class="st0" d="M439,392.7c-20.2-38.5-31.3-79.5-35.1-122.7c-1.2-13.1-1.4-26.3-1.4-39.4c-0.1-15.7-0.1-31.3,0-47
		c0-19-3.5-37.3-10.4-55c-2.9-7.3-6.2-14.3-10-21.2c-0.4,0.2-0.6,0.6-0.8,1c-7.2,10-14.9,19.5-23.5,28.3c-0.6,0.6-0.7,1.1-0.3,1.9
		c2.2,4.4,4.4,8.8,5.8,13.5c3.9,12.7,3.5,25-2.9,36.8c-6.6,12-16.9,19.5-29.8,23.8c-6.8,2.3-13.9,3.2-21.1,3.2
		c-0.5,0-1.1-0.3-0.9,0.7c1.2,6.9,1.7,13.8,1.7,20.8c0,0.7,0.3,1.1,0.9,1.4c12.2,7.1,24.5,14.1,36.7,21.2c3.8,2.2,7.6,4.4,11.4,6.6
		c-0.3,0.2-0.5,0.3-0.7,0.5c-11.3,6.3-22.5,12.8-33.9,19c-7.9,4.3-14.8,9.7-20.3,16.9c-6.9,9.3-12.4,19.4-17.2,29.9
		c-8.2,18-14.4,36.6-20.3,55.4c-5.8,18.5-10.8,37.2-16.5,55.7c-0.1,0.3-0.1,0.6-0.4,0.7c-0.2-0.6-0.4-1.3-0.6-1.9
		c-4.9-16.7-9.8-33.4-14.8-50.1c-5.5-18.3-11.5-36.4-19-54c-4.9-11.4-10.3-22.4-17.5-32.6c-5.1-7.2-11-13.6-18.9-18
		c-8-4.4-15.9-8.9-23.9-13.4c-4.8-2.7-9.6-5.4-14.5-8.1c0.5-0.3,0.9-0.5,1.3-0.8c15.6-9,31.2-18,46.8-27c0.7-0.4,1-0.8,1-1.6
		c0.1-6.7,0.5-13.4,1.7-20.1c0.2-1.2-0.1-1.4-1.2-1.4c-11.2,0.1-21.7-2.4-31.5-7.9c-19.2-10.8-28-31-22.8-52.3
		c1.5-6,4.1-11.6,6.9-17.1c0.4-0.7,0.3-1.1-0.3-1.7c-6.9-7-13.1-14.4-19-22.2c-1.8-2.4-3.5-4.7-5.4-7.2c-1.6,3-3.1,5.9-4.5,8.8
		c-10.7,21.8-16.1,44.7-16,69c0.1,20,0.2,40.1-0.2,60.1c-0.4,20.6-2.4,41-6.3,61.2c-5,25.6-12.8,50.3-23.9,74c-2,4.2-4,8.4-6.4,12.8
		c0.4-0.3,0.5-0.4,0.6-0.5c16.8-13.6,33.6-27.1,50.5-40.7c0.7-0.5,0.9-0.7,1.5,0.2c11.8,19.2,23.7,38.4,35.5,57.7
		c0.6,1,0.9,1,1.7,0.2c12.2-11.6,24.5-23.1,36.8-34.7c0.7-0.6,0.9-0.8,1.5,0.1c14.4,23.5,28.9,47,43.4,70.4
		c5.9,9.6,11.8,19.1,17.8,28.9c20.6-33.5,41.2-66.8,61.8-100.2c0.4,0.4,0.7,0.6,1,0.9c12.2,11.5,24.5,23,36.7,34.6
		c0.8,0.7,1,0.8,1.6-0.2c11.8-19.2,23.7-38.4,35.5-57.7c0.4-0.7,0.6-1.1,1.5-0.4c14.4,11.7,28.9,23.3,43.3,35c2.5,2,5,4,7.8,6.3
		C439.1,392.9,439,392.8,439,392.7z"/>
	<path class="st0" d="M128.8,89.6c13.9,17.1,30,32.1,47.3,45.6c14.8,11.5,30.3,21.8,47.2,30c0.9,0.4,1.4,0.4,2.2-0.2
		c7.2-5.2,15.2-8.2,24.2-8.3c9.3-0.1,17.6,3,25,8.4c0.6,0.5,1.1,0.6,1.8,0.2c1.6-0.9,3.3-1.6,4.9-2.5c16.1-8.4,31.1-18.5,45.2-29.8
		c17.6-14,33.7-29.4,47.6-47.1c8.2-10.5,15.4-21.7,20.3-34.3c0.6-1.6,1.3-3.2,1.7-5c-0.2,0.1-0.3,0.2-0.3,0.2
		c-5.6,8-12.7,14.4-21.1,19.4c-4,2.4-8.2,4.2-12.9,4.9c-1.7,0.2-3,0-4.3-1.4c-14.6-14.7-31.5-26-50.7-33.7
		c-12.8-5.2-26.2-8.2-39.9-9.9c-6.1-0.7-12.1-1.3-18.2-1.2c-6.3,0.1-12.7,0.7-19,1.6c-13.4,1.9-26.5,5.1-39,10.4
		c-18.5,7.9-34.8,19.1-49,33.4c-0.6,0.6-1.2,0.9-2.1,0.8c-2.6-0.2-5.1-0.7-7.5-1.7c-11.4-4.6-20.4-12.4-27.6-22.2
		c-0.2-0.3-0.4-0.5-0.6-0.8c0.8,3.1,2,6.1,3.3,9C112.7,68,120.2,79.1,128.8,89.6z"/>
	<path class="st0" d="M193.7,268.3c14.7,8.9,25.6,21.4,33.9,36.4c6.2,11.2,10.8,23.1,14.8,35.3c2.6,7.9,5.1,15.8,7.7,23.8
		c0.2-0.4,0.2-0.5,0.3-0.7c2.4-7.4,4.6-14.8,7.1-22.1c4.1-12.4,8.7-24.6,15-36c8-14.5,18.5-26.8,32.6-35.8c1.4-0.9,2.9-1.8,4.5-2.8
		c-6.3-3.6-12.5-7.2-18.7-10.7c-2.9-1.6-4.8-3.8-5.2-7.1c-0.2-1.3,0-2.6,0-3.9c0.3-9.5-0.1-18.9-2.1-28.1
		c-2.7-12.3-8.6-22.7-18.8-30.4c-8.9-6.7-19.4-7-28.4-0.5c-5.6,4-10.2,9-13.6,15.1c-5,8.9-6.9,18.6-7.8,28.6
		c-0.5,5.8-0.4,11.7-0.2,17.5c0.1,3.7-1.4,6.6-4.6,8.4c-2.1,1.2-4.2,2.4-6.3,3.6c-4.3,2.5-8.6,5-13.1,7.5
		C191.7,267.1,192.7,267.7,193.7,268.3z"/>
	<path class="st0" d="M330.7,185.7c11.8-7.7,12.6-20.1,6.9-31c-7.5,5.9-15.4,11.5-23.5,16.6c-8.1,5.1-16.5,9.8-25.3,14.2
		c5.7,3.2,11.6,5.1,17.8,5.6C315.2,191.8,323.3,190.4,330.7,185.7z"/>
	<path class="st0" d="M210.5,185.1c-8.1-4.1-16-8.5-23.7-13.3c-8.2-5.1-16.1-10.6-23.6-16.6c-0.6-0.5-0.9-0.5-1.2,0.3
		c-0.5,1.5-1.2,2.9-1.7,4.4c-2.2,7.4-1.8,14.4,3.3,20.7c3.4,4.2,7.9,7,13.1,8.7c12,3.9,23.4,2.3,34.4-3.6
		C211,185.2,210.7,185.2,210.5,185.1z"/>
</g>
</svg>
